# xmcd
#
# Track frame offsets:
#	187
#	18707
#	31735
#	43897
#	59990
#	72485
#	89052
#	104395
#	118472
#	134337
#
# Disc length: 1998 seconds
#
# Revision: 3
# Processed by: cddbd v1.5.2PL0 Copyright (c) Steve Scherf et al.
# Submitted via: EasyCDDAExtractor 15.3.0.1
#
DISCID=9a07cb0a,a107cc0a
DTITLE=Reba McEntire - Greatest Hits
DYEAR=1987
DGENRE=Country
TTITLE0=Just A Little Love
TTITLE1=He Broke Your Memory Last Night
TTITLE2=How Blue
TTITLE3=Somebody Should Leave
TTITLE4=Have I Got A Deal For You
TTITLE5=Only In My Mind
TTITLE6=Whoever's In New England
TTITLE7=Little Rock
TTITLE8=What Am I Gonna Do About You
TTITLE9=One Promise Too Late
EXTD=
EXTT0=
EXTT1=
EXTT2=
EXTT3=
EXTT4=
EXTT5=
EXTT6=
EXTT7=
EXTT8=
EXTT9=
PLAYORDER=
